<svg viewBox="0 0 747 528" xmlns="http://www.w3.org/2000/svg"><g fill="none" fill-rule="evenodd"><path d="M40.3 210.2c-13 7.4-7.3 28.3-6.3 48 1.8 36.1-.3 82.9-.3 128 0 28-.3 60-1 84.9-.8 31.4 1.6 49.9 35.1 49.9 68 0 46.5-16.5 46.5-102.3 0-28.4 3.3-171.4.7-202-.2-1.5-.9-2.6-1.3-3.5-.3-.6-4.1-3.2-4.6-3.8.1-7.4 0-13-.6-17-4.4-25.7-69-20-68.4 7.3.2 4.2.7 7.6.2 10.5" fill="#EAEAEA"/><path d="M43.3 210c.3 46.4 1.2 113.7 2.2 162.7.8 43.6 1.4 92.4.6 136.6 0 4.6 8.3 6.3 13.3 7.5 4.8 1.2 9.6 5.6 9.7-2.6 0-4.4.4-11.5.4-17.1.2-32.7.6-262.7-.1-290.6-.1-2.7-21.3.9-26.1 3.4m61.4-.8c-.1 45.6-.5 118.5-.8 166.5-.3 42.7-.4 90-.1 133.4 0 4.6-3 4.4-4.7 5.6-1.7 1.2-3.4 5.6-3.4-2.6l-.1-15c-.1-32-.3-262 0-289.4 0-2.7 6.2-1 9 1.5" fill="#D6D6D6"/><path d="M26.8 218.3a1 1 0 012.2 0L31 506.6c2.1 5 6.6 9 12.4 12a70 70 0 0028.8 6.8c10.6.4 21.4-1.1 30.2-4.7a31 31 0 0016.2-13.2l2-288a1 1 0 012 0l-2 288.2a1 1 0 010 .5 32.8 32.8 0 01-17.4 14.4c-9 3.8-20.2 5.3-31 5a72.2 72.2 0 01-29.8-7.1 27.5 27.5 0 01-13.4-13.2 1 1 0 010-.4l-2.3-288.6z" fill="#2B2B2B"/><path d="M29 220.3a1 1 0 01-2.2 0c.3-5 6-9.5 15.1-12.6a107.6 107.6 0 0139.3-4.6c11.6.5 21.9 2.5 29.3 5.4 7.6 3 12.3 7.2 12.3 11.8a9.3 9.3 0 010 .3 1 1 0 11-2.1-.1v-.2c0-3.6-4.2-7-11-9.8a92 92 0 00-34-5.4c-12.8 0-24.5 1.7-33.1 4.6-8.3 2.8-13.5 6.6-13.6 10.6" fill="#2B2B2B"/><path d="M34.4 211.9a1 1 0 01-2.2 0l.3-19.2a10.5 10.5 0 010-.4c0-5 4.1-9.5 11-12.8a68.6 68.6 0 0125.9-5.8 96.2 96.2 0 014.6 0c11.5 0 22 2 29.8 5.3 8 3.4 13 8.3 13.3 13.7v19a1 1 0 01-2 0l-.1-19c-.2-4.4-4.8-8.6-12-11.7a76 76 0 00-29-5.2 95.4 95.4 0 00-4.5 0c-10 .5-18.8 2.6-25.1 5.6-6.1 3-9.8 6.8-9.8 10.9v.3l-.2 19.3z" fill="#2B2B2B"/><path d="M98.7 189.3c-.7-1.6-1.8-2.7-3.2-2.5a4 4 0 00-2.6 1.6 7 7 0 00-1.3 3.3c-.2 1.2 0 2.4.3 3.5a4 4 0 002 2.3c1.9.8 3.2.6 4-.1.9-.8 1.3-2 1.4-3.5a10 10 0 00-.6-4.6m-3.5-4.6c2.6-.4 4.4 1.4 5.4 3.8.7 1.7 1 3.7.9 5.5-.2 2-.9 3.8-2.1 5-1.4 1.3-3.6 1.7-6.4.4a6 6 0 01-3-3.5c-.6-1.4-.7-3-.5-4.5.2-1.6.8-3 1.7-4.3 1-1.2 2.3-2.2 4-2.4" fill="#2B2B2B"/><path d="M95.7 194.2c.8 0 1.5-.8 1.5-1.7 0-1-.7-1.8-1.5-1.8s-1.5.8-1.5 1.8.7 1.7 1.5 1.7M12.4 177a.7.7 0 111 1c-6.5 6.1-8.3 11.8-11 20.2l-.2.6-.2.8-.6 2.1a.7.7 0 01-1.4-.3l.6-2.2.2-.8.3-.7A41.5 41.5 0 0112.4 177m3.2 6.8a.7.7 0 011.2.7l-1.7 2.7c-2.3 3.4-3 4.7-4.4 10.4a.7.7 0 11-1.4-.3c1.4-6 2.3-7.3 4.6-10.9l1.7-2.6" fill="#2B2B2B"/><path d="M130.7 513.3a.7.7 0 11.1-1.4c7.8.6 16.7.4 26.2.3 10.8-.2 22.3-.4 33.4.4a.7.7 0 11-.1 1.4c-11.1-.7-22.5-.6-33.2-.4-9.6.1-18.6.3-26.4-.3M116 524a.7.7 0 11-.3-1.4c5.2-.8 11-1.4 16.8-1.6 5-.2 10 0 14.5.5a.7.7 0 01-.2 1.4c-4.4-.6-9.3-.7-14.2-.5-5.7.2-11.5.8-16.6 1.6m86.3-10.4a.7.7 0 010-1.4c1.4 0 6.6 0 10.4.2h4a.7.7 0 010 1.5l-4-.1-10.4-.2m-45.5-5.8a.7.7 0 010-1.4c4.9.3 9.6.2 14 .2 4-.1 8-.2 11.5 0a.7.7 0 11-.1 1.5 132 132 0 00-11.4-.1c-4.4 0-9.2.1-14-.2" fill="#A3A3A3"/><path d="M108.4 94.8l-1.7.6C106.2 70.5 61 78.2 61 94 61 96 31 85.7 27 69.3c0-.2-12 14.3-3 39.7 6 17.3 13.9 17.4 17.7 22.8 7.4 10.4-33.4 2.7-11.2 16.8 16 10.1 39 10.1 56.4 5.2 20.3-5.8 32.9-32.7 26.8-46.3-4.5-.8 19.8-12.7-5.3-12.7" fill="#FFC7DE"/><path d="M105.3 115.2c-3.2-4.3-11-5.6-17.2 7.7-4 8.3-9.5 16-12.7 23.6-2.4 5.9 5.7 7.2 14.9 1.6 11-6.7 23-22 15-32.9" fill="#FFF"/><path d="M63.5 158.5a1 1 0 111.5 1.4c-6.2 6.5-5.9 6.8-4.2 8.8.7.7 1.5 1.6 2.4 3l.3.6a1 1 0 11-2 1v-.1a2.5 2.5 0 00-.1-.4c-.8-1.2-1.6-2-2.2-2.7-2.8-3.2-3.3-3.8 4.3-11.6m14.4-35.2a1 1 0 01-2-.7c4.7-13.3-8-20.3-22.2-28.2-11.9-6.6-24.8-13.8-30.5-25.8a57.9 57.9 0 00-2 43.4 35.9 35.9 0 0014.5 18.7A38 38 0 0053 136a1 1 0 01-.1 2.1 40 40 0 01-18.3-5.6A38 38 0 0119 112.7a60 60 0 013.2-46.9 1 1 0 012 .1c4.9 12.5 18.3 19.9 30.4 26.6 15.1 8.4 28.5 15.9 23.2 30.8" fill="#2B2B2B"/><path d="M22.2 83.3a.7.7 0 011.3-.3c2 7 4.7 12 8.8 16 4.1 4 9.7 7 17.5 9.7a.7.7 0 01-.5 1.4 48 48 0 01-18-10c-4.3-4.3-7-9.5-9.1-16.8m1.6 22a.7.7 0 011.2-.8 24 24 0 0011 8.5c4.8 2 10.3 2.8 15.4 2.3a.7.7 0 11.2 1.5c-5.4.4-11.1-.4-16.2-2.5-4.8-2-9-5-11.6-9m10.5 18.4a.7.7 0 01.4-1.4 27 27 0 0016.6-.2.7.7 0 11.4 1.3 28.3 28.3 0 01-17.4.3m62.2-31.8a1 1 0 112-.9c1.9 4.3-.5 6.9-1.5 8h-.1a1 1 0 11-1.6-1.4h.1c.8-.9 2.5-2.7 1.1-5.7m-44.7 56.6a1 1 0 012.1 0c0 1 .3 2 .6 2.5.5 1 1.4 1.4 2.4 1.6 1.1.2 2.4 0 3.7-.3 2-.5 4-1.6 5.2-2.8a1 1 0 111.5 1.5 14.6 14.6 0 01-6.2 3.4c-1.6.4-3.2.5-4.6.3-1.6-.3-3-1.1-3.8-2.6-.5-.9-.9-2-1-3.6" fill="#2B2B2B"/><path d="M61.8 91.5a1 1 0 01-2.1-.2c.7-8.1 6.8-13.7 14.5-16.2a31.5 31.5 0 0121.6 1 21.2 21.2 0 0113 19.6l4 1.3c2.4.5 5 .9 6.1.9a1 1 0 011 1.6c-.7 1.4-2 2.8-3.7 4-1.8 1.5-3.9 2.8-5.7 3.7-.3 15.1-5.2 27-12.7 35.5a51 51 0 01-25.3 15.5 57.2 57.2 0 01-29 .2 46.2 46.2 0 01-27.5-19 1 1 0 01.8-1.6 143.5 143.5 0 013.6-.3c6-.5 14.9-1.3 17.4-3.9a1 1 0 011.5 1.5c-3 3.2-12.3 4-18.8 4.5l-1.7.2c6 8.4 15.1 14 25.2 16.5a55 55 0 0028-.1 48.9 48.9 0 0024.2-14.9c7.3-8.3 12-19.9 12.2-34.7 0-.4.3-.8.6-1a33 33 0 008-5.7 47.8 47.8 0 01-4.6-.9c-2.1-.5-4.2-1.1-5.2-1.8a1 1 0 01-.5-.8A19.3 19.3 0 0095 78a29.4 29.4 0 00-20-.8c-7 2.2-12.5 7.1-13.2 14.3" fill="#2B2B2B"/><path d="M94.9 121.3a.7.7 0 111.4 0c0 1 0 2-.4 2.9a8.3 8.3 0 01-1.4 2.6.7.7 0 11-1-.9 6.9 6.9 0 001-2.1c.3-.8.4-1.6.4-2.5m2.3 10.6a.7.7 0 011.1.9l-.7 1.1c-.4.9-1 1.8-2.3 3.1a.7.7 0 11-1-1c1.2-1.1 1.7-2 2-2.7l.9-1.4m-10.3 4.8a.7.7 0 111.4 0c0 .9-.5 1.8-1.3 2.7-1.1 1.1-2.6 2.1-3.3 2.4a.7.7 0 01-.5-1.3c.5-.2 1.8-1.1 2.7-2 .6-.7 1-1.3 1-1.8m-31.7 17a1 1 0 011.8 1.1l-1.8 2.5c-2.6 3.5-8 9.4-7.6 9.6l2.6 2.5c1.7 1.6 3.5 3.2 5.8 6 1.2 0 2.1.3 2.8.7 1 .6 1.5 1.4 1.7 2.3.2.7.2 1.5.1 2.2-.1.8-.5 1.6-.7 1.8a1 1 0 01-1.4-1.6v-.5-1.4a1.8 1.8 0 00-.8-1 4 4 0 00-2.2-.5 1 1 0 01-.9-.3 53 53 0 00-5.9-6.1 94 94 0 01-2.6-2.5c-1-1 4.4-8.4 7.4-12.5l1.7-2.4M151 385.4a.7.7 0 111.4-.3c.8 3.4-1.6 8.7-3.4 12.5l-.7 1.7a.7.7 0 01-1.3-.6l.7-1.7c1.7-3.6 4-8.6 3.3-11.6m-8.6-6.2a.7.7 0 111.4 0 105 105 0 01-1.7 16.2c-.9 5-2.2 9.8-3.9 16a.7.7 0 01-1.3-.5 103.8 103.8 0 005.5-31.8" fill="#2B2B2B"/><path d="M81.2 271.8c0 47.3-5.7 118.5-.7 170 3.6 37 6.9 28.4 7.1-4.8.3-49.2-.7-142.2-.7-158 0-34.4-7.8-31.8-6.6-18.2.4 5 1 3.8 1 11" fill="#FFF"/><path d="M110.7 361.4a1 1 0 11.9 1.9c-8.8 4-29.7 7.2-48.9 5.7-14.1-1.1-27.5-4.7-34.6-12.4a1 1 0 011.6-1.4c6.7 7.2 19.5 10.6 33.2 11.7 18.9 1.5 39.2-1.6 47.8-5.5" fill="#2B2B2B"/><path d="M62 183.7c-5.8 2.7-7.2 6 3.5 4.6 2.8-.4 29.6.3 19.6-5.4-7.3-4-15-3-23 .8" fill="#FFF"/><path d="M37 248.8a.7.7 0 111.3 0c.2 12.2.2 24.7.3 37.3l.3 39.1a.7.7 0 01-1.4 0l-.3-39c0-12.7-.2-25.2-.3-37.4M38 381a.7.7 0 111.4 0l-.1 52.2-.1 46.9a.7.7 0 11-1.5 0l.2-46.9.1-52.2M39.2 209a.7.7 0 11-1.4.3c-.6-2.8-.2-7 .2-10.6.2-2 .4-3.9.3-5a.7.7 0 111.4 0l-.3 5.1c-.4 3.4-.8 7.6-.2 10.2m10.4 7.5a.7.7 0 11-.5-1.3 97 97 0 0124.5-4.2 39 39 0 0117.9 2 .7.7 0 01-.7 1.2 38 38 0 00-17.2-1.8c-9.3.5-19.5 2.3-24 4.1m52.3-.4a.7.7 0 010-1.4c4.8 0 6.4 1.2 7.5 2 .4.3.7.5 1.1.6a.7.7 0 01-.2 1.4c-.7-.2-1.2-.5-1.7-.9-1-.7-2.4-1.7-6.7-1.7m9 289.2a.7.7 0 111.4 0v.6c-.6 3.3-6 6-12.4 7.8-6.3 1.8-13.6 3-18.6 3h-3.7a.7.7 0 01.2-1.5c.9.2 2 .2 3.5.2a80 80 0 0018.2-3c6-1.8 11-4.1 11.4-6.7v-.4M57.6 361.2a.7.7 0 11-.4-1.4c.5-.1 3.9.4 7.3 1 3 .5 6 1 7 1 2.8 0 10.2-.3 16.4-1 4-.6 7.3-1.3 8.6-2.2a.7.7 0 11.8 1.2 25 25 0 01-9.2 2.3c-6.2.9-13.8 1.2-16.6 1.1-1.1 0-4.2-.5-7.2-1-3.3-.6-6.5-1-6.7-1" fill="#2B2B2B"/><path d="M209.7 195.3c4.7-.6 17.8-2.4 30.1-3.2-.5-18.3 10.2-33.6 19.3-43.4-5 21.2 2.9 36.3 15.5 42.4-5-22.3-2.7-52.9 27.6-60.3-41.3-55.3 140.2-89.4 146-41.9 16.5-16.8 114.1-23.6 126 33.7 39.5-4.8 33.2 23.5 46 28.9 50.7 21.1 6.7 39.9 17.6 47 74.5 48.4 32.3 124-9.5 136.5-37.8 11.3-22.4 45.9-84 40-22-2-22.4 1.2-30 4.4-85.5 35-105.3-11.3-116.3-8-97.9 30.2-95-44.4-100.3-44.7-44.4-2.4-41.3-36.7-27.9-67.4 13.6-31 2.7-28.5-8.3-14-12.8 16.7-13.2 23.3-13 30-14.4-8-99.4-64.5-117.4-66.6-8.7-1-6.1-5.3 7.4-7.5 25.1-4 70.4-5.8 71.1-5.9" fill="#FFEBF3"/><path d="M442.8 382.1a.7.7 0 011.4 0c.3 7.3 3.5 11 8 12.6 4.7 1.7 11 1.5 17.1 1.2a.7.7 0 110 1.5c-6.2.2-12.6.4-17.6-1.4-5-1.9-8.6-5.8-9-13.9M647 203.5a1 1 0 11.6-2 35.4 35.4 0 0122.2 20.5 69 69 0 015.5 30.5 70.2 70.2 0 01-7.2 29.6c-4.7 9-11.5 15.5-20.3 17.3a1 1 0 11-.4-2c8-1.8 14.4-8 18.8-16.3a68 68 0 007-28.7 66.9 66.9 0 00-5.3-29.6 33.3 33.3 0 00-20.9-19.3m9.5 128a.7.7 0 011.5 0 19 19 0 01-3.3 12.6 20.8 20.8 0 01-11.2 7 .7.7 0 11-.4-1.3c4.8-1.5 8.2-3.6 10.5-6.5 2.2-3 3.2-6.8 3-11.8M491.8 75.4a.7.7 0 11-1-1c2.8-2.7 7-4 11.4-3.7 2 0 4.2.5 6.1 1.3 2 .8 3.8 1.9 5.2 3.4a12 12 0 013.2 9 .7.7 0 11-1.4 0c.1-3.4-1-6-2.9-8a13 13 0 00-4.6-3.1c-1.8-.7-3.7-1.1-5.7-1.2-4-.2-7.9.9-10.3 3.3M635 156.3a.7.7 0 01-.7-1.2c4-2.3 8-2.2 11.5-.6 2.5 1.2 4.9 3.1 6.7 5.4 1.9 2.3 3.3 5 4.1 7.6 1.2 4 1 8-1.2 10.7a.7.7 0 11-1.1-.9c2-2.3 2-5.8 1-9.4-.8-2.5-2.1-5-3.9-7.1a17.7 17.7 0 00-6.2-5 10.8 10.8 0 00-10.2.5" fill="#FF3F8E"/><path d="M619.7 88a.7.7 0 11-1-1c5.8-5.8 11.4-9.8 15.8-13a70 70 0 006.4-5 .7.7 0 011 1 70.8 70.8 0 01-6.6 5.2c-4.3 3-9.8 7-15.6 12.8M486.6 44.3a.7.7 0 11-1.3-.5c.7-1.6 1.7-4 3-6.6 5-12 13.8-31.8 19-37a.7.7 0 111 1c-5 5-13.7 24.7-18.8 36.5l-3 6.6m-19.3-3a.7.7 0 11-1.3-.3c.6-2.6.8-5.4 1-8.2.2-3 .4-5.7 1-8a.7.7 0 111.4.4c-.6 2.1-.8 4.9-1 7.7-.2 2.8-.4 5.8-1 8.4m233.6 266.5a.7.7 0 011.3-.7c2.1 3.8 7.7 7.3 14.4 10.4 10.2 4.6 22.9 8 29.6 9.5a.7.7 0 01-.3 1.4c-6.8-1.5-19.6-5-29.9-9.6-7-3.2-12.8-6.9-15-11m24.2 38.7a.7.7 0 11.8-1.2 163 163 0 0012 6.3.7.7 0 01.1 1.4c-.6 0-2.4-.8-4.5-1.8-3.5-1.8-8-4.4-8.4-4.7" fill="#A3A3A3"/><path d="M234.7 284a.7.7 0 011.4 0c0 2 1 4 2.4 5.6a13.1 13.1 0 005.8 4 .7.7 0 01-.5 1.3c-2.4-.8-4.7-2.4-6.4-4.4a10.8 10.8 0 01-2.7-6.5m43.5-160.6a.7.7 0 01.1 1.4c-7.9.7-8.6 3-10 7.9a76.2 76.2 0 01-.9 3 .7.7 0 01-.7.5 21.4 21.4 0 00-16.8 7 27 27 0 00-7.2 16.9v.1a.7.7 0 01-1.4 0v-.2c.3-6.5 3-13 7.5-17.7a22.8 22.8 0 0117.5-7.5l.7-2.5c1.6-5.5 2.3-8 11.2-9M225.9 205a.7.7 0 01.6 1.3 13.6 13.6 0 00-4.2 2.6 14.4 14.4 0 00-4.4 8.4c-.5 3.2-.1 6.5 1 9.4.7 1.7 1.7 3.2 2.8 4.5a.7.7 0 01-1 1 16 16 0 01-3-5 19.3 19.3 0 01-1.2-10.1c.6-3.5 2.2-6.8 4.8-9.2a15 15 0 014.6-3M339.8 72a.7.7 0 01-.5 1.3 5 5 0 00-.7-.2c-1.6-.3-3.8-.2-5.9.4-2 .7-3.7 1.8-4.3 3.4a3.5 3.5 0 00-.1.5.7.7 0 11-1.4-.3l.2-.7c.8-2 2.9-3.4 5.2-4.2 2.3-.7 4.8-.9 6.6-.5l.9.3" fill="#FF3F8E"/><path d="M292.3 73.4a.7.7 0 11-1.2.7c-1-1.8-3.8-5.2-6.6-8.8-4.6-5.8-9.5-12-9.4-14a.7.7 0 011.4 0c0 1.5 4.7 7.5 9 13 3 3.7 5.7 7.2 6.8 9m-13.5 2.2a.7.7 0 11-.2 1.4c-3.7-.5-6.8-4.4-7.7-5.6-.1-.1.1 0 0-.1a.7.7 0 01.5-1.3c.2 0 .3.2.6.5.8 1.2 3.6 4.7 6.8 5.1" fill="#A3A3A3"/><path d="M108.4 197.3a.7.7 0 01.2-1.4 3752 3752 0 0195.6 19.5l108.3 23.4a.7.7 0 11-.3 1.3l-108.3-23.3c-41.4-8.8-80.7-17-95.5-19.5m19.8-5a.7.7 0 010-1.5c20.6-.8 41.7-2 62.6-3.3a3677 3677 0 0161.3-3.2.7.7 0 110 1.4c-20 .8-40.5 2-61.2 3.2-21 1.3-42 2.5-62.7 3.3m7 18.1a.7.7 0 11.7-1.2c3.1 1.9 22.5 11 44.3 21 25.8 12.1 54.9 25.7 64 30.7a.7.7 0 01-.7 1.2c-9-4.9-38.1-18.5-64-30.5a1330.4 1330.4 0 01-44.3-21.2m42-11.8a.7.7 0 110 1.4h-1.7l-.3-.1H173.8l-.3-.1H172l-.3-.1h-1.1l-.2-.1h-.2a.7.7 0 01.1-1.4h1.8l.3.1h1.3l.3.1h1.6l.3.1H177.2zm14.2.2a.7.7 0 010 1.4H184.3a.7.7 0 110-1.4H191.4zm14.1-.6a.7.7 0 01.1 1.4h-1.8l-.3.1H202.1l-.3.1h-1.7l-.3.1h-1.3a.7.7 0 010-1.4H201.2l.2-.1h1.8l.2-.1h1.2l.3-.1h.6zm14.1-1.3a.7.7 0 11.2 1.4H218.9l-.3.1h-.6l-.3.1h-.6l-.3.1h-.6l-.3.1H215l-.3.1h-.6l-.3.1H212.9l-.2.1a.7.7 0 11-.1-1.4h.7l.3-.1H214.5l.3-.1h.6l.3-.1h.6l.3-.1H217.5l.3-.1h.6l.3-.1h.6l.3-.1zm9-1.1a.7.7 0 01.2 1.4h-.6l-.3.1h-.6l-.4.1a.7.7 0 01-.3-1.4h.8l.3-.1h.6l.4-.1zM156 198a.7.7 0 01.2-1.4h.8l.3.1h.5l.3.1h.5l.3.1h.6l.2.1H160.6l.2.1h.6l.3.1h.5l.3.1h.7a.7.7 0 01-.2 1.5h-.7l-.2-.1h-.6l-.3-.1h-.5l-.3-.1h-.8l-.3-.1h-.6l-.2-.1h-.6l-.3-.1h-.5l-.3-.1h-.5l-.3-.1zm29.2 46.7a.7.7 0 11-.8 1.2l-.3-.2-.2-.1-.2-.1-.2-.2-.3-.1-.2-.1-.2-.2-.2-.1-.2-.1-.2-.2h-.2l-.2-.2-.3-.2h-.2l-.2-.2-.2-.1-.2-.2h-.2l-.2-.2-.2-.1-.2-.2-.2-.1-.2-.1-.2-.1-.2-.2h-.2l-.2-.2-.2-.1a.7.7 0 01.6-1.3l.3.2h.2l.2.2.2.1.2.2h.2l.2.2.2.1.2.2h.2l.2.2.3.2h.2l.2.2.2.1.2.2.2.1.2.1.2.2h.3l.2.2.2.2h.2l.2.2.2.2.2.1.3.1.2.2h.1zm11.8 8a.7.7 0 11-.8 1.1h-.1l-.2-.2-.2-.1-.3-.2-.2-.1-.2-.2-.2-.1-.2-.2-.2-.2-.2-.1-.3-.2-.2-.1-.2-.2-.2-.1-.2-.2-.3-.1-.2-.2-.2-.1-.2-.2-.2-.1-.3-.2-.2-.1-.2-.2-.2-.1-.2-.2-.2-.1-.3-.2a.7.7 0 11.8-1.2l.2.2.3.2.2.1.2.2.2.1.2.2.3.1.2.2.2.1.2.2.2.1.3.2.2.1.2.2.2.1.2.2.3.1.2.2.2.1.2.2.2.2.3.1.2.2.2.1.2.2.2.1zm11.1 8.9a.7.7 0 01-1 1v-.1l-.3-.2-.1-.1-.2-.2-.2-.1-.2-.2-.2-.2-.1-.1-.2-.2-.2-.1-.2-.2-.2-.2-.2-.1-.2-.2-.1-.1-.2-.2-.2-.2-.2-.1-.2-.2-.2-.1-.2-.2-.2-.2-.2-.1-.2-.2-.2-.1-.2-.2-.2-.2-.2-.1-.1-.1a.7.7 0 01.9-1.1h.1l.2.2.2.2.2.2.2.1.2.2.2.1.2.2.2.2.2.1.2.2.2.1.2.2.2.2.2.1.2.2.1.2.2.1.2.2.2.1.2.2.2.2.2.1.1.2.2.2.2.1.2.2.2.1.1.2zm6.8 7.1a.7.7 0 01-1.2.9v-.2l-.2-.1-.1-.2-.1-.1-.2-.2v-.1l-.2-.2-.2-.2v-.1l-.2-.2-.1-.1-.2-.2-.1-.1a.7.7 0 011-1l.2.2.1.2.2.1.1.2.1.1.2.2.1.2.1.1.2.2v.1l.2.2.1.2.2.1zM166 235.4a.7.7 0 01.7-1.3h.1l.1.2h.2l.2.2h.1l.2.1h.1l.1.1.2.1h.1l.1.2h.2l.1.1h.2l.1.2h.2l.1.1.2.1h.1l.1.2h.2l.2.1.1.1.2.1.1.1h.2l.1.2h.2l.2.2h.1l.2.1.2.1.1.1.2.1.2.1.1.1.2.1.2.1.1.1.2.1h.1a.7.7 0 11-.7 1.3l-.3-.2h-.1l-.2-.2h-.2l-.1-.2h-.2l-.2-.1-.1-.1-.2-.1-.2-.1-.1-.1-.2-.1h-.2l-.1-.2h-.2l-.1-.1-.2-.1-.1-.1-.2-.1h-.1l-.2-.2h-.1l-.2-.1-.1-.1h-.2l-.1-.2h-.2v-.1h-.2l-.2-.2h-.1l-.1-.1h-.2l-.1-.2h-.1l-.2-.1-.2-.1-.1-.1h-.2v-.1z" fill="#FF3F8E"/><path d="M216.4 165.3a.7.7 0 01.6 1.3c-5.8 2.5-10.6 4.2-15.4 5.5-4.9 1.3-9.8 2.2-16 3.2a.7.7 0 01-.3-1.4 103.7 103.7 0 0031-8.6" fill="#A3A3A3"/><path d="M258.9 340a.7.7 0 01-.4 1.3 19 19 0 01-11-7 20.7 20.7 0 01-3.4-12.7.7.7 0 111.4 0c0 5 1 9 3 12 2.2 3 5.6 5 10.4 6.4m50.5-25.5a1 1 0 010 2.1c-7.3.1-11.8 5.1-13.7 11.8a34.4 34.4 0 000 17.3 27.7 27.7 0 008.3 14.6c5.3 4.4 12.7 5.6 22 .6 0-.3.2-.6.4-1a1 1 0 012 .3c.1.7.2 1.5-.6 2.2-1 3.5.1 6.9 2.3 9.8a29.8 29.8 0 0016.7 9.8c4.9 1 9.4.3 11.8-2.6a1 1 0 111.6 1.4c-2.9 3.5-8.2 4.4-13.8 3.3a32 32 0 01-10-3.7c-3.2-1.9-6-4.2-8-7a14 14 0 01-3-9.8c-9.5 4.5-17.1 3-22.7-1.7a29.7 29.7 0 01-9.1-15.6 36.5 36.5 0 010-18.4c2.2-7.6 7.4-13.3 15.8-13.4m39.8 41.2a1 1 0 011.8-1 37 37 0 0010.8 11.6 78.9 78.9 0 0039.2 13 74 74 0 0041-7.6c5-2.8 9.4-6.4 12.6-11a1 1 0 011.7 1.3 41 41 0 01-13.2 11.6 76 76 0 01-42.2 7.8 81 81 0 01-40.3-13.4 39.2 39.2 0 01-11.4-12.3m-2.5-252a1 1 0 01-2-.6c3.5-13.1 16.9-22.8 34.2-28 12.4-3.8 26.9-5.4 41.1-4.3 14.3 1 28.4 4.8 40.2 11.5 15.6 8.9 27 23 28.8 43.4a1 1 0 01-2.1.2A52.2 52.2 0 00459 84 94.3 94.3 0 00420 73c-14-1-28.2.5-40.4 4.2-16.6 5-29.5 14.2-32.8 26.5m295.8 184a1 1 0 111.8-1c3.3 5.6 5 11.8 5.2 18A50.2 50.2 0 01625 349a42.2 42.2 0 01-19.7 6 1 1 0 010-2.1c6.8-.3 13.1-2.3 18.7-5.6a48 48 0 0023.4-42.4c-.2-6-1.8-11.9-5-17.2M494.8 112.1a1 1 0 11-1.8-1.3c4.8-6.5 15.8-10.6 28-11.1 5.7-.3 11.6.3 17.2 1.7 5.7 1.4 11 3.7 15.7 7a33.4 33.4 0 0114 25.3c9.7-5.3 20-4 29.3 1.2a54.3 54.3 0 0124.5 30c3.3 10.1 2.6 20.5-4.4 27.6a1 1 0 11-1.5-1.5c6.4-6.5 7-16 3.8-25.5a52.2 52.2 0 00-23.5-28.8c-9-5-19.3-6.1-28.6-.3a1 1 0 01-1.6-.8c-.5-11.7-5.7-20-13.3-25.4a43.7 43.7 0 00-15-6.7 58.7 58.7 0 00-16.5-1.7c-11.6.5-22 4.3-26.3 10.3M584.4 318a1 1 0 012-.1c1 24-8.7 36.7-19.8 43a43.2 43.2 0 01-23.3 5.5c-1.8-.2-3.3-.5-4.3-1a37.3 37.3 0 01-4.4 6 39.9 39.9 0 01-47.4 8.2 28.6 28.6 0 01-5.3-3.8 1 1 0 011.5-1.6 26.5 26.5 0 004.9 3.5c6.5 3.7 14.7 5 22.8 3.7 8-1.3 16-5 22-11.5a35.3 35.3 0 004.6-6.4 1 1 0 012 .2 38.7 38.7 0 0013.7-.2 41 41 0 0012.2-4.5c10.4-6 19.7-18 18.8-41M320.7 141a1 1 0 01-.2 2.2c-18.7-2.1-31.5 5.3-38.9 16.3a46.6 46.6 0 00-7 17.7c-1 6.4-1 13 .2 19 2.5 13 10 24 22 27a1 1 0 01-.3 2c-6 .2-9.6 3.8-11.4 8.8a25 25 0 00-1.3 8.2c0 2.9.5 5.8 1.2 8.5 1.8 6.4 5.5 11.5 10.4 11.8a1 1 0 11-.1 2c-5.9-.3-10.3-6-12.3-13.2a33.8 33.8 0 01-1.3-9.1c0-3.1.5-6.2 1.4-8.9 1.6-4.5 4.5-8 9-9.5-10.4-4.4-17-15-19.4-27.1a55 55 0 01-.1-19.8c1.2-6.6 3.6-13 7.3-18.6 7.7-11.6 21.2-19.4 40.8-17.2m-47.4 100.7a1 1 0 011 1.8 31.7 31.7 0 00-16.3 20.6 45.2 45.2 0 00.5 22.7c2 7.4 5.6 14.4 10 19.7 5 6 11.1 9.8 17.1 9.8a1 1 0 110 2.1c-6.7 0-13.3-4-18.7-10.5a54.6 54.6 0 01-10.4-20.6c-2-7.8-2.5-16-.6-23.7a33.8 33.8 0 0117.4-22m220 79.4a1 1 0 011.3-1.6c6.4 5.5 11.6 6.2 16 4 4.6-2.1 8.4-7.2 11.6-13.2a1 1 0 111.9 1 32 32 0 01-12.6 14.2c-5.2 2.4-11.2 1.7-18.3-4.4m148.3-85.4a1 1 0 012-.7c2.8 7.8-2 11.4-7.5 15.4l-1 .8a1 1 0 11-1.3-1.7l1-.8c4.9-3.5 9-6.7 6.8-13M407.9 341.1a1 1 0 112-.7c.6 1.6 2 3.3 3.7 4.6 1.1.8 2.4 1.4 3.6 1.7 1.2.3 2.5.3 3.7-.1a7.4 7.4 0 003.6-3 1 1 0 011.8 1.3c-1.4 2-3 3.1-4.7 3.7-1.6.5-3.3.5-4.9.1-1.5-.3-3-1-4.3-2a12.3 12.3 0 01-4.5-5.6m-31.8-181.5a1 1 0 11-2.1-.2 14.2 14.2 0 018-11.3 18 18 0 0112.2-1.2c-.3-3.6 2.4-7.5 6.7-10.6a34.5 34.5 0 0120.5-6.5c8.1.3 15.7 4.4 18.6 14.8a1 1 0 01-2 .6c-2.7-9.4-9.4-13-16.7-13.3a32.4 32.4 0 00-19.2 6c-4.3 3.3-6.7 7-5.4 10.2a1 1 0 01-1.4 1.4 14.2 14.2 0 00-3.7-1c-3-.3-6 .2-8.7 1.5a12.1 12.1 0 00-6 6.3 12.6 12.6 0 00-.8 3.3" fill="#FF3F8E"/><path d="M355.4 113.9a1 1 0 01-2.1.3c-.8-5.7-7.4-9.8-15.7-11.5-4-.8-8.3-1-12.6-.6-4.3.3-8.5 1.3-12.3 3a21.6 21.6 0 00-13.2 21.8 1 1 0 11-2.1 0 23.6 23.6 0 0114.4-23.6c4-1.9 8.5-3 13-3.4 4.5-.4 9 0 13.2.8 9.2 1.8 16.5 6.6 17.4 13.2" fill="#FF3F8E"/><path d="M401.4 134.8c-1.1-26.4 40-31.7 43.3-7.3l-1.2.5c-6.8-9.1-34.2-5.8-42.1 6.8m121.8 183.8c9.3 17.9-17.4 34.8-27.5 19l.6-.7c7.7 4 25.5-7 27-18.3M554 204.8c-.3.5 2 1 1.8 4.6-.4 8.8 3.4 24-7.3 26.1-26.1 5.4 2.2-25.5 5.5-30.7m-105.9 30.8c.3 7 4 12.5 14.3 2.7 4.5-4.3 1.8-21.2-6.9-17.8-6 2.4-7.6 9.3-7.4 15M417 261.4c-6.6-38.5 4.2-61 19.8-70.7 63.6-39.2 93 62.5 30 96.6-20.3 10.9-44.5 4.6-49.8-26m-58.7-27.1c6.4-16.5 14.2 21.8 1.2 22.7-22.1 1.6-.5-22.3-1.2-22.7m35.8 19.8c3.6-18.2 4.7-33.9 7.7-45.2 2.2-8.7 4-19.1-2-20.6-14-3.3-36.7-3.4-45.9 9.3-26.2 36.7-49.8 67.8-45.8 83 3 10.8 22.5 19 59.3 5.1 0 .1-12.4 27.6 6.8 26.8 20.3-1 28 .4 23-30.4 18-.6 17 .5 14.4-23.2-.5-5-13.6-5-17.5-4.8m188.9 16.2c29.5-8 25.4-26 1.7-31-1-28.4 33.3-77.4-34-67-7.1 1.1-29.8 29.5-42 56.4-18.4 40.2-1.7 60.9 42 43.5-17 45 35.8 40.5 35 13.5-.1-4-2.6-11.4-2.7-15.4" fill="#FFF"/><path d="M561 189.3a1 1 0 011.3 1.7c-4 2.9-7 13.3-8 24.4-1 10.6-.1 21.7 3.3 27.6a1 1 0 01-1.8 1c-3.7-6.3-4.6-17.8-3.6-28.7 1.1-11.7 4.4-22.7 8.8-26" fill="#2B2B2B"/><path d="M538.4 232.2a1 1 0 11-1.4-1.6c5.6-5 11.1-2.5 14.7-1 .7.4 1.4.7 1.9.8.5.2.9.8.7 1.3a1 1 0 01-1.3.8l-2.2-1c-3-1.3-7.8-3.4-12.4.7m24.4-61a1 1 0 01-1 1.9c-7.2-3.9-14.6-2.3-20.5 2a30.6 30.6 0 00-11.7 17.6c-1.3 6.2-.1 12.4 4.9 16.2a1 1 0 01-1.3 1.7c-5.8-4.4-7.2-11.3-5.6-18.3a32.7 32.7 0 0112.5-19c6.5-4.6 14.6-6.4 22.7-2.1" fill="#2B2B2B"/><path d="M523.4 205.2a1 1 0 011.3 1.7 9.8 9.8 0 00-.4.3c-2 1.8-3 4.2-3 7a13.7 13.7 0 004 9.3 1 1 0 01-.8 1.8c-8.5.6-14.4 7.1-16.6 15-1.5 5-1.5 10.5 0 15.4a21 21 0 009.6 12.2c9.2 5.3 24.6 5 47.6-7.5a1 1 0 011 1.9c-23.7 13-39.9 13-49.6 7.4a23 23 0 01-10.6-13.3 29.2 29.2 0 010-16.7c2.3-8 8-14.8 16.5-16.3-2.3-3-3.3-6.3-3.3-9.3a11.4 11.4 0 014.3-8.9m24 68.5a1 1 0 012 .3c-.5 3.2-.4 6.7.6 10 .9 3 2.5 5.8 4.8 8a17 17 0 009 4.6c3.6.6 8 .4 13-1.1a12.8 12.8 0 001.9-.7c4-2 5.7-5.6 6.3-9.9a36 36 0 00-1.6-14c-.8-2.6-1.7-5-2.6-7a1 1 0 011.9-.8c1 2 2 4.5 2.7 7.2a38.1 38.1 0 011.7 14.9c-.6 5-2.8 9.2-7.5 11.5l-2.2.8c-5.4 1.6-10 1.9-14 1.2a19 19 0 01-10.1-5.2 20.8 20.8 0 01-5.3-9c-1-3.5-1.3-7.3-.6-10.8" fill="#2B2B2B"/><path d="M585.7 271a1 1 0 01.2-2.2c8.8.8 14.3-2.5 17-7 1.8-3.2 2.2-7.1 1.3-10.6-1-3.5-3.3-6.5-6.9-8-5.3-2.5-13.5-1.6-24.1 6.1a1 1 0 01-1.3-1.7c11.4-8.2 20.3-9.1 26.3-6.4 4.2 1.8 6.9 5.4 8 9.4a16 16 0 01-1.5 12.3c-3 5.2-9.2 9-19 8m-19.4-93.2a1 1 0 01-1.7-1.2 16 16 0 016.1-5.3c2.7-1.4 5.8-2.3 9-2.6 6.4-.7 11 1.4 13.8 4.7 1.5 1.8 2.5 3.9 3 6a15.1 15.1 0 010 6.7c-1 4.2-3.9 8-8.5 9.6a1 1 0 01-.7-2 11 11 0 007-8 13 13 0 00.1-5.8c-.4-1.8-1.2-3.6-2.5-5-2.4-3-6.4-4.7-12-4-3 .2-5.8 1-8.2 2.3a13.9 13.9 0 00-5.4 4.6" fill="#2B2B2B"/><path d="M583.4 193.4a1 1 0 01.6-2 8.7 8.7 0 013 1.5c3.8 3 6 9.2 6.9 16.1.8 6.8.4 14.3-1.2 19.8-.7 2.6-1.6 4.7-2.8 6.2a1 1 0 01-1.7-1.3c1-1.3 1.8-3.2 2.5-5.4 1.5-5.3 1.9-12.5 1-19-.7-6.4-2.7-12.2-6-14.8a6.5 6.5 0 00-2.3-1.1m-222.4 29a1 1 0 012 .9 25.2 25.2 0 00-1.9 19.2 40.3 40.3 0 0012.8 19 1 1 0 11-1.3 1.6 42.4 42.4 0 01-13.5-20 27.3 27.3 0 012-20.8m-13.4 35a1 1 0 11-1.5-1.4c1.8-2 4.6-3.2 7.4-3.3 2.7 0 5.5.8 7.8 2.8a1 1 0 11-1.4 1.6 9 9 0 00-12.3.3m40 5.2a1 1 0 01-1.8-1.2c5.1-7.6 10.7-10 15.5-9.3 4 .5 7.4 3.1 9.4 6.6 2 3.4 2.7 7.6 1.3 11.2-1.5 4-5.4 7.2-12.5 8 .2 1.4.7 3.4 1.4 5.6 1 4 2.3 8.7 2.4 13.1 0 7.7-3.5 14.3-17.4 14.4-7.4 0-12.1-1-15-3.7-3-2.8-4-7.3-3.9-14.3a1 1 0 012.1 0c0 6.4.7 10.4 3.2 12.7 2.5 2.4 6.8 3.2 13.6 3.1 12.2 0 15.3-5.7 15.2-12.1 0-4.2-1.2-8.8-2.3-12.6a30 30 0 01-1.4-7.2 1 1 0 011-1c6.7-.6 10.3-3.3 11.6-6.7a11 11 0 00-1.1-9.5 11 11 0 00-8-5.5c-4-.5-8.7 1.6-13.3 8.4" fill="#2B2B2B"/><path d="M379 276a1 1 0 011.6 1.3L379 279c-2.9 2.9-8 6.6-14 8.1-6.2 1.6-13.4 1-20.3-4.5a32 32 0 01-2.7-2.4 1 1 0 011.5-1.5l2.5 2.2c6.3 5.1 12.8 5.6 18.4 4.2a30.1 30.1 0 0013.1-7.6 18.5 18.5 0 001.4-1.5m-40.3 7.8a1 1 0 01.7 2c-9.5 3.5-17.1 1.6-22-3.2-2.3-2.3-4-5.3-5-8.6-1-3.4-1.2-7-.7-10.9 1.6-11.4 10-24 27.7-30.7a1 1 0 01.7 2c-16.8 6.4-24.8 18.3-26.3 29-.5 3.5-.3 7 .6 10 .9 3 2.4 5.6 4.5 7.7 4.3 4.3 11.1 5.9 19.8 2.7m15.4-93.9a1 1 0 01-1.4 1.7c-3-2.4-6.1-2.4-8.4-1.2a7.3 7.3 0 00-2.9 2.9c-.6 1.2-1 2.6-.8 4 .3 2.2 2 4.5 5.9 5.7a1 1 0 01-.6 2c-4.8-1.5-7-4.5-7.4-7.5-.2-1.8.2-3.6 1-5.2a9.4 9.4 0 013.8-3.8c3-1.6 6.8-1.6 10.8 1.4" fill="#2B2B2B"/><path d="M342 201.8a1 1 0 01.5 2c-1.3.4-2.6 1-3.8 1.8-2.8 2-5.1 5.1-6.6 8.7a18.8 18.8 0 00-1 11.2 13 13 0 002 4.3 1 1 0 01-1.8 1.2 15.2 15.2 0 01-2.2-5c-1-4-.5-8.5 1-12.5 1.6-4 4.2-7.5 7.4-9.7 1.4-1 3-1.6 4.5-2m12.4-2.8a1 1 0 01-2-.7c1.2-3.9 8-7.4 15.8-9.6 8-2.2 17-3 22.6-1.3a1 1 0 11-.6 2 44.3 44.3 0 00-21.4 1.3c-7.3 2-13.4 5.1-14.4 8.3m36.3-1.3a1 1 0 11-2-.2 13.4 13.4 0 0113-11.1c1.5 0 2.9.5 4 1.3 2.1 1.5 3.4 4.6 2.6 9.4-.3 2-1.5 4.5-3.2 6.4-1 1-2 2-3.1 2.5.7 1 1.3 2.8 1.8 4.9.4 2 .7 4.5.7 7.1.3 9.7-2 22-8.7 26.8a1 1 0 11-1.2-1.7c6-4.3 8-16 7.8-25 0-2.5-.3-4.9-.7-6.8-.4-1.8-.9-3.2-1.5-4-.2-.4-.5-.6-.6-.6a1 1 0 01-.2-2.1c1.5-.1 2.9-1.1 4-2.5 1.5-1.6 2.5-3.7 2.8-5.4.6-3.8-.2-6.2-1.8-7.3a5 5 0 00-2.7-1 9 9 0 00-3.5.7c-3.5 1.2-7 4.5-7.5 8.6m77.1 20.8a1 1 0 11.1 2c-3.9.2-6.5-2-7.7-4.9a10 10 0 01-.7-3.7 9.5 9.5 0 01.7-3.8c1.2-2.8 3.8-4.9 7.9-4.8a1 1 0 010 2.1c-3.1 0-5 1.5-6 3.5a7.4 7.4 0 00-.5 3 7.8 7.8 0 00.6 2.9 5.7 5.7 0 005.6 3.7" fill="#2B2B2B"/><path d="M465.6 204.2a1 1 0 01-2 .8c-1-2.2-1.2-4.4-1-6.6.3-2.7 1.6-5.4 3.4-7.7 1.9-2.2 4.4-4.1 7.2-5.4a21.5 21.5 0 0111.2-1.7c3.7.4 6.8 1.8 9.4 3.7a21.8 21.8 0 017.8 19c-.3 2.8-1.3 5.4-2.8 7.4a1 1 0 01-1.7-1.3c1.3-1.7 2.1-3.9 2.4-6.3a19.7 19.7 0 00-7-17c-2.3-1.8-5-3-8.3-3.4a19.4 19.4 0 00-10 1.5 17.6 17.6 0 00-6.5 4.9c-1.6 2-2.7 4.2-3 6.6a10.5 10.5 0 00.9 5.5M449.9 218a1 1 0 112-.7 63.1 63.1 0 012.5 21.5 39.4 39.4 0 01-3.8 18 1 1 0 01-1.8-1.1c2.2-3.4 3.3-10 3.5-17a61 61 0 00-2.4-20.7" fill="#2B2B2B"/><path d="M454.2 245.4a1 1 0 01-2.1-.2c.3-4.2 2.5-7.4 5.4-9.6 3.6-2.9 8.4-4.3 12.2-4.4a1 1 0 010 2.2c-3.4 0-7.7 1.3-10.9 3.8-2.5 2-4.3 4.7-4.6 8.2m7-55.2a1 1 0 11-1 1.9c-11-6.6-21.2-5-28.6.4a31.2 31.2 0 00-12.3 18.5c-1.8 7.9-.2 15.8 6.2 20.2a1 1 0 11-1.1 1.7c-7.3-4.9-9.2-13.7-7.1-22.4a34.6 34.6 0 0113-19.7c8.1-5.8 19-7.6 31-.6M416.6 232a1 1 0 111.7 1.3c-.7 1-1.3 2-1.7 3-1 3-1 6.6-.3 9.8.8 3.2 2.4 6 4.5 7.7a7 7 0 001.8 1 1 1 0 01.6 1.4c-3.9 9-1 17 4.7 22.6a28.1 28.1 0 0022.5 7.5c8.5-1 16.4-6.5 19.4-18.3a1 1 0 112 .6c-3.2 12.7-11.8 18.6-21.1 19.8a30 30 0 01-24.3-8.1 21.2 21.2 0 01-5.5-24 9.6 9.6 0 01-1.4-.9c-2.5-1.9-4.4-5.1-5.2-8.8-1-3.5-.9-7.5.3-11a13.5 13.5 0 012-3.6m54.6 47.7a1 1 0 01.7-2 8 8 0 004.5.5 7.1 7.1 0 003.2-1.6c1-.9 1.7-2 2.2-3.2.7-1.8.8-3.9.4-6.3a1 1 0 011-1.3c1.4 0 3.1-1.2 4.9-3a53 53 0 0010-32 28.3 28.3 0 00-8.7-20.6 1 1 0 011.4-1.5c6.3 5.6 9 13.7 9.3 22a55 55 0 01-2.8 19.2c-2 6-4.8 11-7.7 14.2a11.3 11.3 0 01-5.2 3.7 13 13 0 01-.6 6.3 10 10 0 01-2.8 4 9.3 9.3 0 01-4.2 2.1c-1.8.4-3.7.3-5.7-.5m-95-74.6a.7.7 0 11-.1-1.4c4.4-.4 7.8.7 10 2.4a8 8 0 012 2.3c.5 1 .8 1.9.9 2.9.1 1.7-.4 3.5-1.7 5.1a.7.7 0 11-1.1-.9 6 6 0 001.4-4.1 5.4 5.4 0 00-.7-2.3 6.6 6.6 0 00-1.7-2c-2-1.4-5-2.3-9-2M527 254a.7.7 0 111.4 0c0 .5.6 1.2 1.4 1.7a5.9 5.9 0 002.2.9c.8.1 1.6.1 2.4-.2 1-.3 2-1.2 2.7-2.9a.7.7 0 011.3.5 6 6 0 01-3.6 3.8c-1 .3-2 .4-3 .2a7.3 7.3 0 01-2.8-1c-1.2-.8-2-2-2-3" fill="#2B2B2B"/><path d="M439.4 264.1a.7.7 0 01-.7-1.2 7.8 7.8 0 011.7-.7c1.6-.4 3.5-.5 5.2 0 1.8.4 3.3 1.3 4.1 2.8l.5 1a.7.7 0 01-1.4.5 3.5 3.5 0 00-.3-.8c-.6-1.2-1.8-1.9-3.2-2.2-1.5-.3-3.1-.3-4.5 0a6.4 6.4 0 00-1.4.6m142.5-60.4a.7.7 0 110 1.4c-1.3 0-1.6 2.2-1.6 4.3v2.3l.1 1a.7.7 0 11-1.4 0v-.9a41 41 0 01-.1-2.4c0-2.7.5-5.7 3-5.7" fill="#2B2B2B"/><path d="M366 93.5a.7.7 0 01-1.3.1v-.1c-.2-4.2 4.4-7.4 10-9.6a58 58 0 0115.7-3.6h2.2a.7.7 0 010 1.4H390c-3.5.3-9.6 1.5-14.8 3.6-5 2-9.2 4.7-9 8v.2zm.5 263.2a.7.7 0 011.4 0c.2 4.5 1.7 7.6 4.3 9.5 2.6 2 6.3 3 10.6 3.2a.7.7 0 010 1.4 20 20 0 01-11.5-3.4c-2.8-2.3-4.6-5.7-4.8-10.7m-102.7-73.9a.7.7 0 011.5 0c.1 4.3 2.2 10.5 5.4 15 2.6 3.8 5.8 6.5 9.3 6.5a.7.7 0 110 1.4c-4 0-7.6-3-10.4-7a33.2 33.2 0 01-5.8-15.9m328.4 109.3a.7.7 0 111.4.3c-.7 3.3-3.1 5.9-6.1 7.8a26 26 0 01-11.8 4 .7.7 0 110-1.4c3.3-.2 7.6-1.5 11-3.8 2.7-1.7 4.9-4 5.5-6.9" fill="#FF3F8E"/></g></svg>
