<?xml version="1.0" encoding="utf-8"?>
<!-- Generator: Adobe Illustrator 19.2.1, SVG Export Plug-In . SVG Version: 6.00 Build 0)  -->
<svg version="1.1" id="layer" xmlns="http://www.w3.org/2000/svg" xmlns:xlink="http://www.w3.org/1999/xlink" x="0px" y="0px"
	 viewBox="0 0 652 652" style="enable-background:new 0 0 652 652;" xml:space="preserve">
<style type="text/css">
	.st0{fill:#cecece;}
</style>
<path class="st0" d="M139.3,266.7c-10.4-0.1-20.5,2.9-29.3,8.5c2.7,2.1,5.1,4.4,7.2,7c6.8-3.7,14.4-5.6,22.1-5.5
	c26,0,44.4,19.1,44.4,45.7c0,26.4-18.5,45.4-44.4,45.4c-25.7,0-44.1-18.9-44.1-45.4c-0.1-7.6,1.6-15.1,4.9-21.9
	c-1.9-3-4.3-5.6-7.2-7.7c-5.5,8.9-8.3,19.1-8.3,29.6c0,32.2,23,55.7,54.8,55.7c31.5,0,55.1-23.9,55.1-55.7S170.8,266.7,139.3,266.7z
	 M275.5,334.4c0,4.5-0.6,9-1.7,13.3c-3.8,12.8-14.4,20-28.6,20c-14.1,0-24.7-7.2-28.5-20c-1.2-4.3-1.7-8.8-1.7-13.3v-65.6h-10.6
	v66.7c0,5.6,0.8,11.2,2.3,16.6c5.2,16.3,18.6,26,38.7,26c20,0,33.3-10,38.7-26.3c1.4-4.4,2.2-11.1,2.2-16.6v-66.4h-10.6L275.5,334.4
	L275.5,334.4z M90,361.7c-2.9,1.3-6,2.2-9.1,2.8c-5.6,1.1-11.3,1.5-17.1,1.4H31.5v-87.2h32.4c5.7-0.1,11.4,0.4,17.1,1.4
	c20.5,4.4,31.8,19.2,31.8,42.3c0.1,7.5-1.4,15-4.4,21.9c1.9,3.1,4.3,5.8,7,8.1c5.2-8.5,8-18.8,8-30c0-27.9-14.7-46.3-39.8-51.8
	c-6-1.2-12.1-1.8-18.2-1.7H20.8v107h44.6c6.1,0.1,12.2-0.4,18.2-1.6c4.7-1,9.2-2.6,13.5-4.9C94.3,367.3,91.9,364.6,90,361.7z
	 M598.2,318.5l-11.3-5.5c-9.6-4.7-15-10.4-15-19.4c0-10,6.9-17.2,17.7-17.2c11.1,0,17.4,7.8,19.1,20.2h10
	c-1.9-20.7-13.9-29.9-29.1-29.9c-16.7,0-28.3,12.1-28.3,27.4c0,14,8.5,22.9,21.8,29.1l11.4,5.3c8.1,3.8,15.5,9.9,15.5,20.8
	c0,11-7.8,18.5-19.4,18.5c-12.5,0-21.6-7.2-23.5-24.3h-10.6c1.7,23.6,15.2,34.6,34,34.6c18.3,0,30.5-12.2,30.5-29.3
	C620.8,331.8,609.7,324.1,598.2,318.5z M505,268.9l-41.5,107h11.9l12.7-34h44.1l12.8,34h12.2l-41.6-107
	C515.7,268.9,505,268.9,505,268.9z M528.5,331.9h-36.6l12.4-32.9c2.2-5.8,4.1-11.6,5.9-17.4c1.9,5.8,3.9,11.6,6.1,17.4L528.5,331.9
	L528.5,331.9z M423.5,268.9h-10.6v107h42.9l4.2-10h-36.5V268.9z M340.3,326.8v10h50.5c-3.9,18.6-19.4,31-39.9,31
	c-26,0-44-19-44-45.5c0-26.4,18.3-45.5,44-45.5c17.2,0,31.3,8.9,37.6,24.3h11.4c-6.6-21.1-25.8-34.3-49-34.3
	c-31.3,0-54.6,23.9-54.6,55.6c0,32.6,22.5,55.9,54.6,55.9c30.4,0,52.1-21.9,51.8-51.3L340.3,326.8L340.3,326.8z"/>
</svg>
